<svg width="29" height="29" viewBox="0 0 29 29" fill="none" xmlns="http://www.w3.org/2000/svg">
<path d="M18.125 15.6479H9.66669C9.17127 15.6479 8.76044 15.2371 8.76044 14.7417C8.76044 14.2463 9.17127 13.8354 9.66669 13.8354H18.125C18.6204 13.8354 19.0313 14.2463 19.0313 14.7417C19.0313 15.2371 18.6204 15.6479 18.125 15.6479Z" fill="#730A0A"/>
<path d="M14.9592 20.4812H9.66669C9.17127 20.4812 8.76044 20.0704 8.76044 19.575C8.76044 19.0795 9.17127 18.6687 9.66669 18.6687H14.9592C15.4546 18.6687 15.8654 19.0795 15.8654 19.575C15.8654 20.0704 15.4546 20.4812 14.9592 20.4812Z" fill="#730A0A"/>
<path d="M16.9167 8.15633H12.0834C10.9234 8.15633 8.76044 8.15633 8.76044 4.83341C8.76044 1.5105 10.9234 1.5105 12.0834 1.5105H16.9167C18.0767 1.5105 20.2396 1.5105 20.2396 4.83341C20.2396 5.99341 20.2396 8.15633 16.9167 8.15633ZM12.0834 3.323C10.8871 3.323 10.5729 3.323 10.5729 4.83341C10.5729 6.34383 10.8871 6.34383 12.0834 6.34383H16.9167C18.4271 6.34383 18.4271 6.02966 18.4271 4.83341C18.4271 3.323 18.1129 3.323 16.9167 3.323H12.0834Z" fill="#730A0A"/>
<path d="M18.125 27.4896H10.875C4.08417 27.4896 2.71875 24.3721 2.71875 19.3334V12.0834C2.71875 6.57335 4.7125 4.2171 9.61833 3.96335C10.1017 3.93919 10.5488 4.31377 10.5729 4.82127C10.5971 5.32877 10.2104 5.7396 9.715 5.76377C6.28333 5.9571 4.53125 6.98419 4.53125 12.0834V19.3334C4.53125 23.8042 5.41333 25.6771 10.875 25.6771H18.125C23.5867 25.6771 24.4688 23.8042 24.4688 19.3334V12.0834C24.4688 6.98419 22.7167 5.9571 19.285 5.76377C18.7896 5.7396 18.4029 5.3046 18.4271 4.80919C18.4513 4.31377 18.8863 3.9271 19.3817 3.95127C24.2875 4.2171 26.2812 6.57335 26.2812 12.0713V19.3213C26.2812 24.3721 24.9158 27.4896 18.125 27.4896Z" fill="#730A0A"/>
</svg>
