<svg width="29" height="29" viewBox="0 0 29 29" fill="none" xmlns="http://www.w3.org/2000/svg">
<path d="M9.66663 6.948C9.17121 6.948 8.76038 6.53716 8.76038 6.04175V2.41675C8.76038 1.92133 9.17121 1.5105 9.66663 1.5105C10.162 1.5105 10.5729 1.92133 10.5729 2.41675V6.04175C10.5729 6.53716 10.162 6.948 9.66663 6.948Z" fill="#730A0A"/>
<path d="M19.3334 6.948C18.838 6.948 18.4271 6.53716 18.4271 6.04175V2.41675C18.4271 1.92133 18.838 1.5105 19.3334 1.5105C19.8288 1.5105 20.2396 1.92133 20.2396 2.41675V6.04175C20.2396 6.53716 19.8288 6.948 19.3334 6.948Z" fill="#730A0A"/>
<path d="M10.2708 17.5208C10.1137 17.5208 9.95667 17.4846 9.81167 17.4242C9.65458 17.3637 9.53375 17.2791 9.41292 17.1704C9.19542 16.9408 9.0625 16.6387 9.0625 16.3125C9.0625 16.1554 9.09875 15.9983 9.15917 15.8533C9.21959 15.7083 9.30417 15.5754 9.41292 15.4546C9.53375 15.3458 9.65458 15.2612 9.81167 15.2008C10.2467 15.0195 10.7904 15.1162 11.1287 15.4546C11.3462 15.6841 11.4792 15.9983 11.4792 16.3125C11.4792 16.385 11.4671 16.4696 11.455 16.5542C11.4429 16.6267 11.4187 16.6991 11.3825 16.7716C11.3583 16.8441 11.3221 16.9166 11.2738 16.9891C11.2375 17.0496 11.1771 17.11 11.1287 17.1704C10.8992 17.3879 10.585 17.5208 10.2708 17.5208Z" fill="#730A0A"/>
<path d="M14.5 17.5208C14.3429 17.5208 14.1858 17.4846 14.0408 17.4242C13.8837 17.3637 13.7629 17.2791 13.642 17.1704C13.4245 16.9408 13.2916 16.6387 13.2916 16.3125C13.2916 16.1554 13.3279 15.9983 13.3883 15.8533C13.4487 15.7083 13.5333 15.5754 13.642 15.4546C13.7629 15.3458 13.8837 15.2612 14.0408 15.2008C14.4758 15.0075 15.0195 15.1162 15.3579 15.4546C15.5754 15.6841 15.7083 15.9983 15.7083 16.3125C15.7083 16.385 15.6962 16.4696 15.6841 16.5542C15.672 16.6267 15.6479 16.6991 15.6116 16.7716C15.5875 16.8441 15.5512 16.9166 15.5029 16.9891C15.4666 17.0495 15.4062 17.11 15.3579 17.1704C15.1283 17.3879 14.8141 17.5208 14.5 17.5208Z" fill="#730A0A"/>
<path d="M18.7292 17.5208C18.5721 17.5208 18.415 17.4846 18.27 17.4242C18.113 17.3637 17.9921 17.2791 17.8713 17.1704C17.823 17.11 17.7746 17.0495 17.7263 16.9891C17.678 16.9166 17.6417 16.8441 17.6175 16.7716C17.5813 16.6991 17.5571 16.6267 17.545 16.5542C17.533 16.4696 17.5209 16.385 17.5209 16.3125C17.5209 15.9983 17.6538 15.6841 17.8713 15.4546C17.9921 15.3458 18.113 15.2612 18.27 15.2008C18.7171 15.0075 19.2488 15.1162 19.5871 15.4546C19.8046 15.6841 19.9375 15.9983 19.9375 16.3125C19.9375 16.385 19.9255 16.4696 19.9134 16.5542C19.9013 16.6267 19.8771 16.6991 19.8409 16.7716C19.8167 16.8441 19.7805 16.9166 19.7321 16.9891C19.6959 17.0495 19.6355 17.11 19.5871 17.1704C19.3575 17.3879 19.0434 17.5208 18.7292 17.5208Z" fill="#730A0A"/>
<path d="M10.2708 21.7499C10.1137 21.7499 9.95667 21.7137 9.81167 21.6533C9.66667 21.5929 9.53375 21.5083 9.41292 21.3995C9.19542 21.1699 9.0625 20.8558 9.0625 20.5416C9.0625 20.3845 9.09875 20.2274 9.15917 20.0824C9.21959 19.9254 9.30417 19.7925 9.41292 19.6837C9.86 19.2366 10.6817 19.2366 11.1287 19.6837C11.3462 19.9133 11.4792 20.2274 11.4792 20.5416C11.4792 20.8558 11.3462 21.1699 11.1287 21.3995C10.8992 21.617 10.585 21.7499 10.2708 21.7499Z" fill="#730A0A"/>
<path d="M14.5 21.7499C14.1858 21.7499 13.8716 21.617 13.642 21.3995C13.4245 21.1699 13.2916 20.8558 13.2916 20.5416C13.2916 20.3845 13.3279 20.2274 13.3883 20.0824C13.4487 19.9254 13.5333 19.7925 13.642 19.6837C14.0891 19.2366 14.9108 19.2366 15.3579 19.6837C15.4666 19.7925 15.5512 19.9254 15.6116 20.0824C15.672 20.2274 15.7083 20.3845 15.7083 20.5416C15.7083 20.8558 15.5754 21.1699 15.3579 21.3995C15.1283 21.617 14.8141 21.7499 14.5 21.7499Z" fill="#730A0A"/>
<path d="M18.7292 21.75C18.415 21.75 18.1009 21.6171 17.8713 21.3996C17.7625 21.2908 17.678 21.1579 17.6175 21.0009C17.5571 20.8559 17.5209 20.6988 17.5209 20.5417C17.5209 20.3846 17.5571 20.2275 17.6175 20.0825C17.678 19.9254 17.7625 19.7925 17.8713 19.6838C18.1492 19.4059 18.5721 19.2729 18.9588 19.3575C19.0434 19.3696 19.1159 19.3938 19.1884 19.43C19.2609 19.4542 19.3334 19.4904 19.4059 19.5388C19.4663 19.575 19.5267 19.6354 19.5871 19.6838C19.8046 19.9134 19.9375 20.2275 19.9375 20.5417C19.9375 20.8559 19.8046 21.17 19.5871 21.3996C19.3575 21.6171 19.0434 21.75 18.7292 21.75Z" fill="#730A0A"/>
<path d="M24.7708 11.8899H4.22913C3.73371 11.8899 3.32288 11.4791 3.32288 10.9836C3.32288 10.4882 3.73371 10.0774 4.22913 10.0774H24.7708C25.2662 10.0774 25.677 10.4882 25.677 10.9836C25.677 11.4791 25.2662 11.8899 24.7708 11.8899Z" fill="#730A0A"/>
<path d="M19.3333 27.4897H9.66667C5.25625 27.4897 2.71875 24.9522 2.71875 20.5417V10.2709C2.71875 5.8605 5.25625 3.323 9.66667 3.323H19.3333C23.7438 3.323 26.2812 5.8605 26.2812 10.2709V20.5417C26.2812 24.9522 23.7438 27.4897 19.3333 27.4897ZM9.66667 5.1355C6.21083 5.1355 4.53125 6.81508 4.53125 10.2709V20.5417C4.53125 23.9976 6.21083 25.6772 9.66667 25.6772H19.3333C22.7892 25.6772 24.4688 23.9976 24.4688 20.5417V10.2709C24.4688 6.81508 22.7892 5.1355 19.3333 5.1355H9.66667Z" fill="#730A0A"/>
</svg>
