<svg width="98" height="98" viewBox="0 0 98 98" fill="none" xmlns="http://www.w3.org/2000/svg">
<path d="M53.0834 92.8976H20.4167C10.5351 92.8976 5.10425 87.4668 5.10425 77.5851V44.9185C5.10425 35.0368 10.5351 29.606 20.4167 29.606H40.8334C42.5076 29.606 43.8959 30.9943 43.8959 32.6685V77.5851C43.8959 84.0368 46.6317 86.7726 53.0834 86.7726C54.7576 86.7726 56.1459 88.161 56.1459 89.8351C56.1459 91.5093 54.7576 92.8976 53.0834 92.8976ZM20.4167 35.731C13.9651 35.731 11.2292 38.4668 11.2292 44.9185V77.5851C11.2292 84.0368 13.9651 86.7726 20.4167 86.7726H40.0167C38.5467 84.3635 37.7709 81.301 37.7709 77.5851V35.731H20.4167Z" fill="#730A0A"/>
<path d="M40.8334 35.7298H20.4167C18.7426 35.7298 17.3542 34.3415 17.3542 32.6673V24.5007C17.3542 18.294 22.3767 13.2715 28.5834 13.2715H41.2825C42.2217 13.2715 43.1201 13.7206 43.6918 14.4556C44.2635 15.2314 44.4675 16.2115 44.2225 17.1098C43.9775 18.0082 43.8959 19.029 43.8959 20.4173V32.6673C43.8959 34.3415 42.5076 35.7298 40.8334 35.7298ZM23.4792 29.6048H37.7709V20.4173C37.7709 20.0498 37.7709 19.7232 37.7709 19.3965H28.5834C25.7659 19.3965 23.4792 21.6832 23.4792 24.5007V29.6048Z" fill="#730A0A"/>
<path d="M57.1667 56.1476C55.4926 56.1476 54.1042 54.7593 54.1042 53.0851V32.6685C54.1042 30.9943 55.4926 29.606 57.1667 29.606C58.8409 29.606 60.2292 30.9943 60.2292 32.6685V53.0851C60.2292 54.7593 58.8409 56.1476 57.1667 56.1476Z" fill="#730A0A"/>
<path d="M73.5002 56.1476C71.826 56.1476 70.4377 54.7593 70.4377 53.0851V32.6685C70.4377 30.9943 71.826 29.606 73.5002 29.606C75.1743 29.606 76.5627 30.9943 76.5627 32.6685V53.0851C76.5627 54.7593 75.1743 56.1476 73.5002 56.1476Z" fill="#730A0A"/>
<path d="M73.5001 92.8976H57.1667C55.4926 92.8976 54.1042 91.5093 54.1042 89.8351V73.5018C54.1042 69.5818 57.3301 66.356 61.2501 66.356H69.4167C73.3367 66.356 76.5626 69.5818 76.5626 73.5018V89.8351C76.5626 91.5093 75.1742 92.8976 73.5001 92.8976ZM60.2292 86.7726H70.4376V73.5018C70.4376 72.9301 69.9884 72.481 69.4167 72.481H61.2501C60.6784 72.481 60.2292 72.9301 60.2292 73.5018V86.7726Z" fill="#730A0A"/>
<path d="M24.5002 72.4798C22.826 72.4798 21.4377 71.0915 21.4377 69.4173V53.084C21.4377 51.4098 22.826 50.0215 24.5002 50.0215C26.1743 50.0215 27.5627 51.4098 27.5627 53.084V69.4173C27.5627 71.0915 26.1743 72.4798 24.5002 72.4798Z" fill="#730A0A"/>
<path d="M77.5834 92.8976H53.0834C43.2017 92.8976 37.7709 87.4668 37.7709 77.5851V20.4185C37.7709 10.5368 43.2017 5.10596 53.0834 5.10596H77.5834C87.465 5.10596 92.8959 10.5368 92.8959 20.4185V77.5851C92.8959 87.4668 87.465 92.8976 77.5834 92.8976ZM53.0834 11.231C46.6317 11.231 43.8959 13.9668 43.8959 20.4185V77.5851C43.8959 84.0368 46.6317 86.7726 53.0834 86.7726H77.5834C84.035 86.7726 86.7709 84.0368 86.7709 77.5851V20.4185C86.7709 13.9668 84.035 11.231 77.5834 11.231H53.0834Z" fill="#730A0A"/>
</svg>
