<svg width="33" height="32" viewBox="0 0 33 32" fill="none" xmlns="http://www.w3.org/2000/svg">
<path d="M28.5 29.333H4.5C3.95333 29.333 3.5 28.8797 3.5 28.333C3.5 27.7863 3.95333 27.333 4.5 27.333H28.5C29.0467 27.333 29.5 27.7863 29.5 28.333C29.5 28.8797 29.0467 29.333 28.5 29.333Z" fill="#273BD2"/>
<path d="M25.8599 4.63988C23.2732 2.05322 20.7399 1.98655 18.0866 4.63988L16.4732 6.25322C16.3399 6.38655 16.2866 6.59988 16.3399 6.78655C17.3532 10.3199 20.1799 13.1466 23.7132 14.1599C23.7666 14.1732 23.8199 14.1866 23.8732 14.1866C24.0199 14.1866 24.1532 14.1332 24.2599 14.0266L25.8599 12.4132C27.1799 11.1066 27.8199 9.83988 27.8199 8.55988C27.8332 7.23988 27.1932 5.95988 25.8599 4.63988Z" fill="#273BD2"/>
<path d="M21.3133 15.3731C20.9266 15.1864 20.5533 14.9997 20.1933 14.7864C19.9 14.6131 19.62 14.4264 19.34 14.2264C19.1133 14.0797 18.8466 13.8664 18.5933 13.6531C18.5666 13.6397 18.4733 13.5597 18.3666 13.4531C17.9266 13.0797 17.4333 12.5997 16.9933 12.0664C16.9533 12.0397 16.8866 11.9464 16.7933 11.8264C16.66 11.6664 16.4333 11.3997 16.2333 11.0931C16.0733 10.8931 15.8866 10.5997 15.7133 10.3064C15.5 9.94641 15.3133 9.58641 15.1266 9.21307C15.0984 9.15255 15.071 9.09232 15.0445 9.03245C14.8478 8.58803 14.2683 8.4581 13.9246 8.80178L6.28662 16.4397C6.11329 16.6131 5.95329 16.9464 5.91329 17.1731L5.19329 22.2797C5.05996 23.1864 5.31329 24.0397 5.87329 24.6131C6.35329 25.0797 7.01996 25.3331 7.73996 25.3331C7.89996 25.3331 8.05996 25.3197 8.21996 25.2931L13.34 24.5731C13.58 24.5331 13.9133 24.3731 14.0733 24.1997L21.7017 16.5713C22.0478 16.2253 21.9172 15.6313 21.4671 15.4392C21.4164 15.4176 21.3652 15.3956 21.3133 15.3731Z" fill="#273BD2"/>
</svg>
