<svg width="38" height="38" viewBox="0 0 38 38" fill="none" xmlns="http://www.w3.org/2000/svg">
<path d="M19 1.97933C9.61085 1.97933 1.97919 9.611 1.97919 19.0002C1.97919 28.3893 9.61085 36.021 19 36.021C28.3892 36.021 36.0209 28.3893 36.0209 19.0002C36.0209 9.611 28.3892 1.97933 19 1.97933ZM19 33.646C10.925 33.646 4.35419 27.0752 4.35419 19.0002C4.35419 10.9252 10.925 4.35433 19 4.35433C27.075 4.35433 33.6459 10.9252 33.6459 19.0002C33.6459 27.0752 27.075 33.646 19 33.646Z" fill="#730A0A"/>
<path d="M19 16.2293C18.3508 16.2293 17.8125 16.7677 17.8125 17.4168V25.3335C17.8125 25.9827 18.3508 26.521 19 26.521C19.6492 26.521 20.1875 25.9827 20.1875 25.3335V17.4168C20.1875 16.7677 19.6492 16.2293 19 16.2293Z" fill="#730A0A"/>
<path d="M19 11.0834C18.7942 11.0834 18.5884 11.1309 18.3984 11.2101C18.2084 11.2893 18.0342 11.4001 17.8759 11.5426C17.7334 11.7009 17.6225 11.8593 17.5434 12.0651C17.4642 12.2551 17.4167 12.4609 17.4167 12.6668C17.4167 12.8726 17.4642 13.0784 17.5434 13.2684C17.6225 13.4584 17.7334 13.6326 17.8759 13.7909C18.0342 13.9334 18.2084 14.0443 18.3984 14.1234C18.7784 14.2818 19.2217 14.2818 19.6017 14.1234C19.7917 14.0443 19.9659 13.9334 20.1242 13.7909C20.2667 13.6326 20.3775 13.4584 20.4567 13.2684C20.5359 13.0784 20.5834 12.8726 20.5834 12.6668C20.5834 12.4609 20.5359 12.2551 20.4567 12.0651C20.3775 11.8593 20.2667 11.7009 20.1242 11.5426C19.9659 11.4001 19.7917 11.2893 19.6017 11.2101C19.4117 11.1309 19.2059 11.0834 19 11.0834Z" fill="#730A0A"/>
</svg>
