<svg width="38" height="38" viewBox="0 0 38 38" fill="none" xmlns="http://www.w3.org/2000/svg">
<path d="M11.0834 28.1039H7.91669C4.08502 28.1039 1.97919 25.9981 1.97919 22.1664V15.8331C1.97919 12.0014 4.08502 9.89559 7.91669 9.89559H10.1809C10.545 9.89559 10.9092 9.78476 11.2259 9.59476L15.8492 6.69726C18.1609 5.25642 20.4092 4.98726 22.1825 5.96892C23.9559 6.95059 24.9217 8.99309 24.9217 11.7323V13.2523C24.9217 13.9014 24.3834 14.4398 23.7342 14.4398C23.085 14.4398 22.5467 13.9014 22.5467 13.2523V11.7323C22.5467 9.92726 21.9925 8.58142 21.0267 8.05892C20.0609 7.52059 18.6359 7.75809 17.1 8.72392L12.4767 11.6056C11.7959 12.0489 10.9884 12.2706 10.1809 12.2706H7.91669C5.41502 12.2706 4.35419 13.3314 4.35419 15.8331V22.1664C4.35419 24.6681 5.41502 25.7289 7.91669 25.7289H11.0834C11.7325 25.7289 12.2709 26.2673 12.2709 26.9164C12.2709 27.5656 11.7325 28.1039 11.0834 28.1039Z" fill="#730A0A"/>
<path d="M19.8709 32.6011C18.62 32.6011 17.2425 32.1577 15.865 31.2869C15.3109 30.9386 15.1367 30.2102 15.485 29.6561C15.8333 29.1019 16.5617 28.9277 17.1159 29.2761C18.6517 30.2261 20.0767 30.4794 21.0425 29.9411C22.0084 29.4027 22.5625 28.0569 22.5625 26.2677V20.5044C22.5625 19.8552 23.1009 19.3169 23.75 19.3169C24.3992 19.3169 24.9375 19.8552 24.9375 20.5044V26.2677C24.9375 28.9911 23.9559 31.0494 22.1984 32.0311C21.4859 32.4111 20.6942 32.6011 19.8709 32.6011Z" fill="#730A0A"/>
<path d="M28.5001 26.5204C28.2467 26.5204 28.0092 26.4412 27.7876 26.2829C27.2651 25.887 27.1542 25.1429 27.5501 24.6204C29.5451 21.9604 29.9726 18.4295 28.6901 15.3737C28.4367 14.772 28.7217 14.0754 29.3234 13.822C29.9251 13.5687 30.6217 13.8537 30.8751 14.4554C32.4901 18.287 31.9359 22.7362 29.4501 26.0612C29.2126 26.362 28.8642 26.5204 28.5001 26.5204Z" fill="#730A0A"/>
<path d="M31.3975 30.4792C31.1441 30.4792 30.9066 30.4001 30.685 30.2417C30.1625 29.8459 30.0516 29.1017 30.4475 28.5792C33.8358 24.0667 34.58 18.0184 32.395 12.8092C32.1416 12.2076 32.4266 11.5109 33.0283 11.2576C33.6458 11.0042 34.3266 11.2892 34.58 11.8909C37.0975 17.8759 36.2425 24.8109 32.3475 30.0042C32.1258 30.3209 31.7616 30.4792 31.3975 30.4792Z" fill="#730A0A"/>
<path d="M3.1667 36.0206C2.86586 36.0206 2.56503 35.9098 2.32753 35.6723C1.86836 35.2131 1.86836 34.4531 2.32753 33.9939L33.9942 2.32729C34.4534 1.86812 35.2134 1.86812 35.6725 2.32729C36.1317 2.78645 36.1317 3.54645 35.6725 4.00562L4.00586 35.6723C3.76836 35.9098 3.46753 36.0206 3.1667 36.0206Z" fill="#730A0A"/>
</svg>
