<svg width="38" height="38" viewBox="0 0 38 38" fill="none" xmlns="http://www.w3.org/2000/svg">
<path d="M12.6666 35.3399C12.2232 35.3399 11.764 35.2291 11.3524 35.0074C10.4499 34.5324 9.89573 33.5824 9.89573 32.569V30.3208C5.11406 29.83 1.97906 26.3149 1.97906 21.2799V11.7799C1.97906 6.33328 5.63656 2.67578 11.0832 2.67578H26.9166C32.3632 2.67578 36.0207 6.33328 36.0207 11.7799V21.2799C36.0207 26.7265 32.3632 30.384 26.9166 30.384H20.9474L14.2024 34.8808C13.7432 35.1817 13.2049 35.3399 12.6666 35.3399ZM11.0832 5.03493C6.99823 5.03493 4.35406 7.6791 4.35406 11.7641V21.2642C4.35406 25.3492 6.99823 27.9934 11.0832 27.9934C11.7324 27.9934 12.2707 28.5317 12.2707 29.1809V32.5534C12.2707 32.7592 12.3974 32.8542 12.4766 32.9017C12.5557 32.9492 12.7141 32.9966 12.8883 32.8858L19.9341 28.1992C20.1241 28.0725 20.3616 27.9934 20.5991 27.9934H26.9324C31.0174 27.9934 33.6616 25.3492 33.6616 21.2642V11.7641C33.6616 7.6791 31.0174 5.03493 26.9324 5.03493H11.0832Z" fill="#730A0A"/>
<path d="M18.9996 19.1738C18.3505 19.1738 17.8121 18.6355 17.8121 17.9863V17.6539C17.8121 15.8172 19.1579 14.9147 19.6646 14.5664C20.2504 14.1705 20.4404 13.9014 20.4404 13.4897C20.4404 12.698 19.7913 12.0488 18.9996 12.0488C18.208 12.0488 17.5588 12.698 17.5588 13.4897C17.5588 14.1389 17.0205 14.6772 16.3713 14.6772C15.7222 14.6772 15.1838 14.1389 15.1838 13.4897C15.1838 11.3839 16.8938 9.67383 18.9996 9.67383C21.1055 9.67383 22.8154 11.3839 22.8154 13.4897C22.8154 15.2947 21.4855 16.1972 20.9946 16.5297C20.3771 16.9414 20.1871 17.2106 20.1871 17.6539V17.9863C20.1871 18.6513 19.6488 19.1738 18.9996 19.1738Z" fill="#730A0A"/>
<path d="M18.9999 23.1167C18.3349 23.1167 17.8124 22.5784 17.8124 21.9292C17.8124 21.28 18.3508 20.7417 18.9999 20.7417C19.6491 20.7417 20.1874 21.28 20.1874 21.9292C20.1874 22.5784 19.6649 23.1167 18.9999 23.1167Z" fill="#730A0A"/>
</svg>
