<svg width="40" height="40" viewBox="0 0 40 40" fill="none" xmlns="http://www.w3.org/2000/svg">
<path d="M20 26.25C16.55 26.25 13.75 23.45 13.75 20C13.75 16.55 16.55 13.75 20 13.75C23.45 13.75 26.25 16.55 26.25 20C26.25 23.45 23.45 26.25 20 26.25ZM20 16.25C17.9333 16.25 16.25 17.9333 16.25 20C16.25 22.0667 17.9333 23.75 20 23.75C22.0667 23.75 23.75 22.0667 23.75 20C23.75 17.9333 22.0667 16.25 20 16.25Z" fill="#2E0000"/>
<path d="M25.35 36.9835C25 36.9835 24.65 36.9335 24.3 36.8502C23.2667 36.5668 22.4 35.9168 21.85 35.0002L21.65 34.6668C20.6667 32.9668 19.3167 32.9668 18.3334 34.6668L18.15 34.9835C17.6 35.9168 16.7334 36.5835 15.7 36.8502C14.65 37.1335 13.5667 36.9835 12.65 36.4335L9.78337 34.7835C8.76671 34.2002 8.03337 33.2502 7.71671 32.1002C7.41671 30.9502 7.56671 29.7668 8.15004 28.7502C8.63337 27.9002 8.76671 27.1335 8.48337 26.6502C8.20004 26.1668 7.48337 25.8835 6.50004 25.8835C4.06671 25.8835 2.08337 23.9002 2.08337 21.4668V18.5335C2.08337 16.1002 4.06671 14.1168 6.50004 14.1168C7.48337 14.1168 8.20004 13.8335 8.48337 13.3502C8.76671 12.8668 8.65004 12.1002 8.15004 11.2502C7.56671 10.2335 7.41671 9.03348 7.71671 7.90015C8.01671 6.75015 8.75004 5.80015 9.78337 5.21682L12.6667 3.56682C14.55 2.45015 17.0334 3.10015 18.1667 5.01682L18.3667 5.35015C19.35 7.05015 20.7 7.05015 21.6834 5.35015L21.8667 5.03348C23 3.10015 25.4834 2.45015 27.3834 3.58349L30.25 5.23349C31.2667 5.81682 32 6.76682 32.3167 7.91682C32.6167 9.06682 32.4667 10.2502 31.8834 11.2668C31.4 12.1168 31.2667 12.8835 31.55 13.3668C31.8334 13.8502 32.55 14.1335 33.5334 14.1335C35.9667 14.1335 37.95 16.1168 37.95 18.5502V21.4835C37.95 23.9168 35.9667 25.9002 33.5334 25.9002C32.55 25.9002 31.8334 26.1835 31.55 26.6668C31.2667 27.1502 31.3834 27.9168 31.8834 28.7668C32.4667 29.7835 32.6334 30.9835 32.3167 32.1168C32.0167 33.2668 31.2834 34.2168 30.25 34.8001L27.3667 36.4502C26.7334 36.8002 26.05 36.9835 25.35 36.9835ZM20 30.8168C21.4834 30.8168 22.8667 31.7502 23.8167 33.4002L24 33.7168C24.2 34.0668 24.5334 34.3168 24.9334 34.4168C25.3334 34.5168 25.7334 34.4668 26.0667 34.2668L28.95 32.6001C29.3834 32.3501 29.7167 31.9335 29.85 31.4335C29.9834 30.9335 29.9167 30.4168 29.6667 29.9835C28.7167 28.3502 28.6 26.6668 29.3334 25.3835C30.0667 24.1001 31.5834 23.3668 33.4834 23.3668C34.55 23.3668 35.4 22.5168 35.4 21.4502V18.5168C35.4 17.4668 34.55 16.6002 33.4834 16.6002C31.5834 16.6002 30.0667 15.8668 29.3334 14.5835C28.6 13.3002 28.7167 11.6168 29.6667 9.98348C29.9167 9.55015 29.9834 9.03348 29.85 8.53348C29.7167 8.03348 29.4 7.63348 28.9667 7.36682L26.0834 5.71682C25.3667 5.28349 24.4167 5.53348 23.9834 6.26682L23.8 6.58349C22.85 8.23349 21.4667 9.16682 19.9834 9.16682C18.5 9.16682 17.1167 8.23349 16.1667 6.58349L15.9834 6.25015C15.5667 5.55015 14.6334 5.30015 13.9167 5.71682L11.0334 7.38348C10.6 7.63348 10.2667 8.05015 10.1334 8.55015C10 9.05015 10.0667 9.56682 10.3167 10.0002C11.2667 11.6335 11.3834 13.3168 10.65 14.6002C9.91671 15.8835 8.40004 16.6168 6.50004 16.6168C5.43337 16.6168 4.58337 17.4668 4.58337 18.5335V21.4668C4.58337 22.5168 5.43337 23.3835 6.50004 23.3835C8.40004 23.3835 9.91671 24.1168 10.65 25.4002C11.3834 26.6835 11.2667 28.3668 10.3167 30.0002C10.0667 30.4335 10 30.9502 10.1334 31.4502C10.2667 31.9502 10.5834 32.3502 11.0167 32.6168L13.9 34.2668C14.25 34.4835 14.6667 34.5335 15.05 34.4335C15.45 34.3335 15.7834 34.0668 16 33.7168L16.1834 33.4002C17.1334 31.7668 18.5167 30.8168 20 30.8168Z" fill="#2E0000"/>
</svg>
