<svg width="98" height="98" viewBox="0 0 98 98" fill="none" xmlns="http://www.w3.org/2000/svg">
<path d="M85.75 82.6875H44.9167C43.2425 82.6875 41.8542 81.2992 41.8542 79.625C41.8542 77.9508 43.2425 76.5625 44.9167 76.5625H85.75C87.4242 76.5625 88.8125 77.9508 88.8125 79.625C88.8125 81.2992 87.4242 82.6875 85.75 82.6875Z" fill="#730A0A"/>
<path d="M85.75 54.1042H44.9167C43.2425 54.1042 41.8542 52.7159 41.8542 51.0417C41.8542 49.3676 43.2425 47.9792 44.9167 47.9792H85.75C87.4242 47.9792 88.8125 49.3676 88.8125 51.0417C88.8125 52.7159 87.4242 54.1042 85.75 54.1042Z" fill="#730A0A"/>
<path d="M85.75 25.5208H44.9167C43.2425 25.5208 41.8542 24.1324 41.8542 22.4583C41.8542 20.7841 43.2425 19.3958 44.9167 19.3958H85.75C87.4242 19.3958 88.8125 20.7841 88.8125 22.4583C88.8125 24.1324 87.4242 25.5208 85.75 25.5208Z" fill="#730A0A"/>
<path d="M16.3333 29.6043C15.5575 29.6043 14.7817 29.3185 14.1692 28.706L10.0858 24.6226C8.90165 23.4385 8.90165 21.4785 10.0858 20.2943C11.27 19.1101 13.23 19.1101 14.4141 20.2943L16.3333 22.2135L26.4191 12.1276C27.6033 10.9435 29.5633 10.9435 30.7475 12.1276C31.9316 13.3118 31.9316 15.2718 30.7475 16.456L18.4975 28.706C17.885 29.3185 17.1091 29.6043 16.3333 29.6043Z" fill="#730A0A"/>
<path d="M16.3333 58.1875C15.5575 58.1875 14.7817 57.9017 14.1692 57.2892L10.0858 53.2059C8.90165 52.0217 8.90165 50.0617 10.0858 48.8775C11.27 47.6934 13.23 47.6934 14.4141 48.8775L16.3333 50.7967L26.4191 40.7109C27.6033 39.5267 29.5633 39.5267 30.7475 40.7109C31.9316 41.895 31.9316 43.855 30.7475 45.0392L18.4975 57.2892C17.885 57.9017 17.1091 58.1875 16.3333 58.1875Z" fill="#730A0A"/>
<path d="M16.3333 86.7708C15.5575 86.7708 14.7817 86.485 14.1692 85.8725L10.0858 81.7891C8.90165 80.605 8.90165 78.645 10.0858 77.4608C11.27 76.2766 13.23 76.2766 14.4141 77.4608L16.3333 79.38L26.4191 69.2941C27.6033 68.11 29.5633 68.11 30.7475 69.2941C31.9316 70.4783 31.9316 72.4383 30.7475 73.6225L18.4975 85.8725C17.885 86.485 17.1091 86.7708 16.3333 86.7708Z" fill="#730A0A"/>
</svg>
