<svg width="33" height="32" viewBox="0 0 33 32" fill="none" xmlns="http://www.w3.org/2000/svg">
<path d="M28.5933 6.97366C26.4467 6.76033 24.3 6.60033 22.14 6.48033V6.46699L21.8467 4.73366C21.6467 3.50699 21.3533 1.66699 18.2333 1.66699H14.74C11.6333 1.66699 11.34 3.42699 11.1267 4.72033L10.8467 6.42699C9.60667 6.50699 8.36667 6.58699 7.12667 6.70699L4.40667 6.97366C3.84667 7.02699 3.44667 7.52033 3.50001 8.06699C3.55334 8.61366 4.03334 9.01366 4.59334 8.96033L7.31334 8.69366C14.3 8.00033 21.34 8.26699 28.4067 8.97366C28.4467 8.97366 28.4733 8.97366 28.5133 8.97366C29.02 8.97366 29.46 8.58699 29.5133 8.06699C29.5533 7.52033 29.1533 7.02699 28.5933 6.97366Z" fill="#730A0A"/>
<path d="M26.1399 10.853C25.82 10.5197 25.3799 10.333 24.9266 10.333H8.07328C7.61995 10.333 7.16662 10.5197 6.85995 10.853C6.55328 11.1863 6.37995 11.6397 6.40662 12.1063L7.23328 25.7863C7.37995 27.813 7.56662 30.3463 12.22 30.3463H20.78C25.4333 30.3463 25.62 27.8263 25.7666 25.7863L26.5933 12.1197C26.62 11.6397 26.4466 11.1863 26.1399 10.853ZM18.7133 23.6663H14.2733C13.7266 23.6663 13.2733 23.213 13.2733 22.6663C13.2733 22.1197 13.7266 21.6663 14.2733 21.6663H18.7133C19.26 21.6663 19.7133 22.1197 19.7133 22.6663C19.7133 23.213 19.26 23.6663 18.7133 23.6663ZM19.8333 18.333H13.1666C12.62 18.333 12.1666 17.8797 12.1666 17.333C12.1666 16.7863 12.62 16.333 13.1666 16.333H19.8333C20.38 16.333 20.8333 16.7863 20.8333 17.333C20.8333 17.8797 20.38 18.333 19.8333 18.333Z" fill="#730A0A"/>
</svg>
