<svg width="38" height="38" viewBox="0 0 38 38" fill="none" xmlns="http://www.w3.org/2000/svg">
<path d="M19.8709 32.6008C18.62 32.6008 17.2425 32.1575 15.865 31.2866L11.2417 28.3891C10.925 28.1991 10.5609 28.0883 10.1967 28.0883H7.91669C4.08502 28.0883 1.97919 25.9825 1.97919 22.1508V15.8175C1.97919 11.9858 4.08502 9.87996 7.91669 9.87996H10.1809C10.545 9.87996 10.9092 9.76913 11.2259 9.57913L15.8492 6.68163C18.1609 5.2408 20.4092 4.97163 22.1825 5.9533C23.9559 6.93496 24.9217 8.97746 24.9217 11.7166V26.2358C24.9217 28.9591 23.94 31.0175 22.1825 31.9991C21.4859 32.4108 20.6942 32.6008 19.8709 32.6008ZM7.91669 12.2708C5.41502 12.2708 4.35419 13.3316 4.35419 15.8333V22.1666C4.35419 24.6683 5.41502 25.7291 7.91669 25.7291H10.1809C11.0042 25.7291 11.7959 25.9508 12.4925 26.3941L17.1159 29.2916C18.6359 30.2416 20.0767 30.495 21.0425 29.9566C22.0084 29.4183 22.5625 28.0725 22.5625 26.2833V11.7325C22.5625 9.92746 22.0084 8.58163 21.0425 8.05913C20.0767 7.5208 18.6359 7.7583 17.1159 8.72413L12.4767 11.6058C11.7959 12.0491 10.9884 12.2708 10.1809 12.2708H7.91669Z" fill="#730A0A"/>
<path d="M28.5001 26.5206C28.2467 26.5206 28.0092 26.4414 27.7876 26.2831C27.2651 25.8873 27.1542 25.1431 27.5501 24.6206C30.0359 21.3114 30.0359 16.6881 27.5501 13.3789C27.1542 12.8564 27.2651 12.1123 27.7876 11.7164C28.3101 11.3206 29.0542 11.4314 29.4501 11.9539C32.5534 16.1023 32.5534 21.8973 29.4501 26.0456C29.2126 26.3623 28.8642 26.5206 28.5001 26.5206Z" fill="#730A0A"/>
<path d="M31.3975 30.4788C31.1441 30.4788 30.9066 30.3996 30.685 30.2413C30.1625 29.8455 30.0516 29.1013 30.4475 28.5788C34.675 22.9421 34.675 15.0571 30.4475 9.42045C30.0516 8.89795 30.1625 8.15378 30.685 7.75795C31.2075 7.36212 31.9516 7.47295 32.3475 7.99545C37.2083 14.4713 37.2083 23.528 32.3475 30.0038C32.1258 30.3205 31.7616 30.4788 31.3975 30.4788Z" fill="#730A0A"/>
</svg>
